<?xml version="1.0" standalone="no"?>
<!DOCTYPE svg PUBLIC "-//W3C//DTD SVG 20010904//EN"
 "http://www.w3.org/TR/2001/REC-SVG-20010904/DTD/svg10.dtd">
<svg version="1.0" xmlns="http://www.w3.org/2000/svg"
 width="200.000000pt" height="112.000000pt" viewBox="0 0 200.000000 112.000000"
 preserveAspectRatio="xMidYMid meet">

<g transform="translate(0.000000,112.000000) scale(0.100000,-0.100000)"
fill="#000000" stroke="none">
<path d="M279 982 c-27 -24 -32 -36 -36 -92 -4 -46 -1 -76 10 -103 16 -38 48
-60 55 -39 2 7 23 12 49 12 40 0 45 -2 40 -20 -3 -11 -1 -23 4 -26 13 -8 11
-108 -3 -122 -7 -7 -24 -12 -40 -12 -33 0 -48 24 -48 74 l0 36 -36 -17 c-34
-17 -36 -20 -31 -57 6 -39 33 -86 55 -94 7 -2 12 3 12 12 0 11 8 13 34 9 21
-3 46 1 65 10 21 11 33 12 37 5 15 -25 34 28 34 94 0 109 -34 148 -126 148
-39 0 -49 22 -42 90 2 28 0 40 -9 40 -7 0 -13 4 -13 8 0 20 28 32 74 32 38 0
47 -3 38 -12 -7 -7 -8 -17 -1 -29 5 -11 10 -35 11 -54 1 -39 13 -46 23 -14 5
16 12 19 30 15 21 -5 22 -4 15 32 -14 80 -40 102 -119 102 -41 0 -56 -5 -82
-28z"/>
<path d="M1560 873 c0 -21 3 -24 12 -15 7 7 26 12 43 12 l30 0 -3 -227 c-1
-125 -1 -225 1 -223 20 28 36 61 26 55 -9 -6 -11 -3 -6 9 4 10 7 22 7 27 0 5
9 9 20 9 19 0 20 7 20 165 0 146 -2 165 -17 174 -14 8 -8 10 27 11 26 0 51 -5
58 -12 9 -9 12 -6 12 15 l0 27 -115 0 -115 0 0 -27z"/>
<path d="M520 698 c0 -184 1 -191 18 -175 23 21 188 25 176 5 -4 -7 -3 -8 5
-4 6 4 9 12 6 17 -4 5 -1 9 4 9 6 0 11 5 11 10 0 6 -32 10 -75 10 l-75 0 0 51
c0 38 -5 55 -17 65 -15 10 -5 13 63 16 69 2 81 1 77 -12 -2 -8 1 -6 8 5 7 11
17 23 23 27 6 4 -26 8 -71 8 l-83 0 0 55 c0 41 -4 56 -17 64 -17 10 -17 10 0
11 85 4 150 0 162 -10 13 -10 15 -8 15 14 l0 26 -115 0 -115 0 0 -192z"/>
<path d="M780 698 c0 -190 0 -191 20 -173 16 15 22 15 35 5 13 -11 15 -3 15
67 0 48 -5 84 -12 91 -9 9 -6 12 15 12 19 0 25 -4 21 -14 -3 -8 13 -42 36 -76
l42 -62 -25 -26 c-32 -35 -47 -65 -47 -94 1 -17 4 -13 15 15 13 38 51 87 67
87 19 0 6 -30 -24 -55 -45 -38 -51 -106 -15 -168 31 -53 70 -72 133 -64 34 3
54 13 80 38 47 46 61 99 39 155 -9 23 -22 47 -29 53 -8 7 -13 46 -15 118 -2
99 -1 106 13 88 9 -11 16 -14 16 -7 0 7 15 12 43 12 l42 0 -3 -93 -3 -94 35
-42 36 -43 0 231 0 231 -35 0 -35 0 0 -80 0 -80 -55 0 -55 0 0 80 0 80 -35 0
-35 0 0 -165 c0 -190 -2 -193 -74 -90 l-44 64 25 16 c21 14 27 15 34 4 6 -10
11 -6 18 14 21 56 10 115 -28 144 -10 8 -53 12 -113 13 l-98 0 0 -192z m157
163 c7 -1 10 -7 7 -15 -3 -8 -1 -17 5 -21 15 -9 14 -68 -1 -83 -7 -7 -31 -12
-55 -12 -42 0 -43 1 -43 34 0 19 -9 45 -21 60 -11 14 -18 29 -16 33 4 7 42 8
124 4z m117 -318 c-5 -5 -12 -12 -16 -18 -4 -6 -8 -2 -8 8 0 9 7 17 17 17 9 0
12 -3 7 -7z m66 -18 c11 -13 8 -15 -20 -15 -28 0 -31 2 -20 15 7 8 16 15 20
15 4 0 13 -7 20 -15z m-100 -85 c0 -5 -4 -10 -10 -10 -5 0 -10 -22 -10 -49 0
-31 -5 -53 -15 -61 -13 -11 -15 -5 -15 49 0 54 -2 61 -20 61 -11 0 -20 5 -20
10 0 6 20 10 45 10 25 0 45 -4 45 -10z m60 -32 l13 -43 11 39 c6 22 17 41 24
44 16 5 15 -3 -3 -66 -22 -71 -45 -71 -68 1 -20 65 -21 67 -4 67 8 0 20 -19
27 -42z"/>
<path d="M1375 718 c-21 -95 -40 -182 -43 -193 -5 -20 -5 -20 17 0 22 19 23
19 36 2 11 -16 13 -15 18 10 4 18 1 32 -8 39 -8 6 -13 13 -11 15 9 9 136 -3
130 -12 -3 -5 -2 -24 1 -41 7 -30 8 -31 21 -13 13 18 14 18 35 -1 22 -19 22
-19 16 4 -3 13 -23 100 -43 193 l-38 169 -46 0 -46 0 -39 -172z m98 106 c11
-12 -13 -43 -28 -38 -11 5 -12 11 -4 25 10 20 21 24 32 13z m8 -135 l16 -69
-37 0 -37 0 15 75 c9 41 18 72 21 69 3 -3 13 -36 22 -75z"/>
<path d="M1680 499 c0 -5 5 -7 10 -4 6 3 10 8 10 11 0 2 -4 4 -10 4 -5 0 -10
-5 -10 -11z"/>
<path d="M1110 210 c0 -5 5 -10 11 -10 5 0 7 5 4 10 -3 6 -8 10 -11 10 -2 0
-4 -4 -4 -10z"/>
<path d="M1215 210 c-3 -5 1 -10 10 -10 9 0 13 5 10 10 -3 6 -8 10 -10 10 -2
0 -7 -4 -10 -10z"/>
<path d="M1075 200 c-3 -6 1 -7 9 -4 18 7 21 14 7 14 -6 0 -13 -4 -16 -10z"/>
</g>
</svg>
